<svg xmlns="http://www.w3.org/2000/svg" xmlns:xlink="http://www.w3.org/1999/xlink" version="1.1" x="0px" y="0px" viewBox="0 0 16 20" style="enable-background:new 0 0 16 16;" xml:space="preserve"><path d="M10.562,6.987l-0.126-0.075c-0.453-0.268-0.987-0.558-1.6-0.6C7.81,6.253,6.972,6.859,6.233,7.403l-0.136,0.1  C5.255,8.12,4.579,8.327,4.088,8.124C3.956,8.069,3.827,7.988,3.697,7.91C3.298,7.669,2.802,7.37,2.218,7.584  C1.958,7.679,1.826,7.966,1.921,8.226c0.095,0.259,0.384,0.393,0.642,0.297C2.687,8.48,2.887,8.589,3.179,8.766  c0.173,0.105,0.349,0.208,0.526,0.282c0.25,0.104,0.512,0.156,0.787,0.156c0.654,0,1.379-0.296,2.195-0.894l0.139-0.102  c0.629-0.464,1.278-0.94,1.941-0.898c0.394,0.027,0.788,0.243,1.158,0.462l0.124,0.074c0.533,0.318,1.137,0.678,1.841,0.746  c0.139,0.014,0.277,0.002,0.416-0.009c-0.272,0.395-0.544,0.79-0.844,1.169c-0.171,0.216-0.135,0.531,0.082,0.702  c0.092,0.073,0.201,0.108,0.31,0.108c0.148,0,0.294-0.065,0.393-0.19c0.319-0.403,0.608-0.822,0.897-1.242  c0.277-0.401,0.554-0.803,0.858-1.189c0.152-0.192,0.132-0.457-0.025-0.636c-0.028-0.072-0.068-0.14-0.13-0.194  C13.789,7.06,13.721,7.029,13.65,7.01c-0.574-0.477-1.146-0.957-1.708-1.448c-0.208-0.181-0.524-0.159-0.706,0.047  c-0.182,0.208-0.161,0.524,0.047,0.706c0.454,0.397,0.915,0.787,1.378,1.175c-0.211,0.088-0.445,0.13-0.676,0.108  C11.506,7.55,11.047,7.277,10.562,6.987z"/><text x="0" y="31" fill="#000000" font-size="5px" font-weight="bold" font-family="'Helvetica Neue', Helvetica, Arial-Unicode, Arial, Sans-serif">Created by Igé Maulana</text><text x="0" y="36" fill="#000000" font-size="5px" font-weight="bold" font-family="'Helvetica Neue', Helvetica, Arial-Unicode, Arial, Sans-serif">from the Noun Project</text></svg>