<svg xmlns="http://www.w3.org/2000/svg" xmlns:xlink="http://www.w3.org/1999/xlink" version="1.1" x="0px" y="0px" viewBox="0 0 16 20" style="enable-background:new 0 0 16 16;" xml:space="preserve"><path d="M13.752,7.199c0,0-0.002,0-0.004,0c-0.859,0-1.701-0.295-2.372-0.831c-0.106-0.084-0.21-0.175-0.315-0.266  c-0.44-0.385-0.941-0.82-1.627-0.875C8.881,5.183,8.306,5.403,7.757,5.866c-0.179,0.151-0.345,0.317-0.51,0.484  C7.076,6.522,6.905,6.696,6.714,6.846c-0.503,0.396-1.198,0.647-2.01,0.729C4.222,7.623,3.73,7.608,3.239,7.579l1.903-2.13  c0.184-0.206,0.166-0.522-0.04-0.706S4.58,4.577,4.396,4.783L2.396,7.021C2.228,7.21,2.058,7.399,1.885,7.583  C1.723,7.754,1.703,8.015,1.836,8.209c0.028,0.04,0.06,0.078,0.088,0.118c0.003,0.003,0.005,0.007,0.008,0.011  c0.769,1.093,1.717,2.108,2.759,2.938c0.092,0.073,0.202,0.108,0.311,0.108c0.147,0,0.293-0.064,0.392-0.188  c0.172-0.216,0.136-0.531-0.08-0.703C4.62,9.94,3.992,9.283,3.415,8.59c0.183,0.009,0.366,0.02,0.551,0.02  c0.278,0,0.558-0.012,0.84-0.041c1-0.101,1.874-0.425,2.526-0.938c0.223-0.175,0.424-0.375,0.624-0.576  C8.102,6.909,8.247,6.763,8.403,6.63c0.238-0.2,0.581-0.422,0.95-0.406c0.358,0.029,0.695,0.322,1.052,0.633  c0.116,0.101,0.231,0.201,0.349,0.294c0.847,0.677,1.91,1.049,2.995,1.049c0.001,0,0.003,0,0.005,0c0.275,0,0.499-0.225,0.499-0.501  C14.252,7.423,14.028,7.199,13.752,7.199z"/><text x="0" y="31" fill="#000000" font-size="5px" font-weight="bold" font-family="'Helvetica Neue', Helvetica, Arial-Unicode, Arial, Sans-serif">Created by Igé Maulana</text><text x="0" y="36" fill="#000000" font-size="5px" font-weight="bold" font-family="'Helvetica Neue', Helvetica, Arial-Unicode, Arial, Sans-serif">from the Noun Project</text></svg>