<?xml version="1.0" encoding="utf-8"?>
<svg xmlns="http://www.w3.org/2000/svg" xmlns:xlink="http://www.w3.org/1999/xlink" style="margin: auto; background: rgba(0, 0, 0, 0) none repeat scroll 0% 0%; display: block; shape-rendering: auto;" width="204px" height="204px" viewBox="0 0 100 100" preserveAspectRatio="xMidYMid">
<g transform="rotate(0 50 50)">
  <rect x="49" y="7.5" rx="0" ry="0" width="2" height="17" fill="#7d071e">
    <animate attributeName="opacity" values="1;0" keyTimes="0;1" dur="2.380952380952381s" begin="-2.1825396825396823s" repeatCount="indefinite"></animate>
  </rect>
</g><g transform="rotate(30 50 50)">
  <rect x="49" y="7.5" rx="0" ry="0" width="2" height="17" fill="#7d071e">
    <animate attributeName="opacity" values="1;0" keyTimes="0;1" dur="2.380952380952381s" begin="-1.9841269841269842s" repeatCount="indefinite"></animate>
  </rect>
</g><g transform="rotate(60 50 50)">
  <rect x="49" y="7.5" rx="0" ry="0" width="2" height="17" fill="#7d071e">
    <animate attributeName="opacity" values="1;0" keyTimes="0;1" dur="2.380952380952381s" begin="-1.7857142857142858s" repeatCount="indefinite"></animate>
  </rect>
</g><g transform="rotate(90 50 50)">
  <rect x="49" y="7.5" rx="0" ry="0" width="2" height="17" fill="#7d071e">
    <animate attributeName="opacity" values="1;0" keyTimes="0;1" dur="2.380952380952381s" begin="-1.5873015873015872s" repeatCount="indefinite"></animate>
  </rect>
</g><g transform="rotate(120 50 50)">
  <rect x="49" y="7.5" rx="0" ry="0" width="2" height="17" fill="#7d071e">
    <animate attributeName="opacity" values="1;0" keyTimes="0;1" dur="2.380952380952381s" begin="-1.3888888888888888s" repeatCount="indefinite"></animate>
  </rect>
</g><g transform="rotate(150 50 50)">
  <rect x="49" y="7.5" rx="0" ry="0" width="2" height="17" fill="#7d071e">
    <animate attributeName="opacity" values="1;0" keyTimes="0;1" dur="2.380952380952381s" begin="-1.1904761904761905s" repeatCount="indefinite"></animate>
  </rect>
</g><g transform="rotate(180 50 50)">
  <rect x="49" y="7.5" rx="0" ry="0" width="2" height="17" fill="#7d071e">
    <animate attributeName="opacity" values="1;0" keyTimes="0;1" dur="2.380952380952381s" begin="-0.9920634920634921s" repeatCount="indefinite"></animate>
  </rect>
</g><g transform="rotate(210 50 50)">
  <rect x="49" y="7.5" rx="0" ry="0" width="2" height="17" fill="#7d071e">
    <animate attributeName="opacity" values="1;0" keyTimes="0;1" dur="2.380952380952381s" begin="-0.7936507936507936s" repeatCount="indefinite"></animate>
  </rect>
</g><g transform="rotate(240 50 50)">
  <rect x="49" y="7.5" rx="0" ry="0" width="2" height="17" fill="#7d071e">
    <animate attributeName="opacity" values="1;0" keyTimes="0;1" dur="2.380952380952381s" begin="-0.5952380952380952s" repeatCount="indefinite"></animate>
  </rect>
</g><g transform="rotate(270 50 50)">
  <rect x="49" y="7.5" rx="0" ry="0" width="2" height="17" fill="#7d071e">
    <animate attributeName="opacity" values="1;0" keyTimes="0;1" dur="2.380952380952381s" begin="-0.3968253968253968s" repeatCount="indefinite"></animate>
  </rect>
</g><g transform="rotate(300 50 50)">
  <rect x="49" y="7.5" rx="0" ry="0" width="2" height="17" fill="#7d071e">
    <animate attributeName="opacity" values="1;0" keyTimes="0;1" dur="2.380952380952381s" begin="-0.1984126984126984s" repeatCount="indefinite"></animate>
  </rect>
</g><g transform="rotate(330 50 50)">
  <rect x="49" y="7.5" rx="0" ry="0" width="2" height="17" fill="#7d071e">
    <animate attributeName="opacity" values="1;0" keyTimes="0;1" dur="2.380952380952381s" begin="0s" repeatCount="indefinite"></animate>
  </rect>
</g>
<!-- [ldio] generated by https://loading.io/ --></svg>