<?xml version="1.0" encoding="UTF-8"?>
<svg xmlns="http://www.w3.org/2000/svg" id="Layer_3" data-name="Layer 3" viewBox="0 0 326.89 86.55">
  <defs>
    <style>
      .cls-1 {
        fill: #180b0c;
      }
    </style>
  </defs>
  <path class="cls-1" d="m39.06,50.52c-.54.37-1.09.8-1.6,1.31-.48.48-.86.96-1.19,1.44.49.32.98.7,1.49,1.2.5.5.92,1.03,1.29,1.56.32-.47.7-.95,1.18-1.43.52-.51,1.05-.94,1.6-1.31-.37-.54-.79-1.08-1.3-1.58-.5-.5-.98-.87-1.46-1.19Zm6.17-5.1c-.4.68-.9,1.38-1.63,2.12-.29.29-.61.55-.96.79.22.18.44.38.66.6.75.75,1.32,1.56,1.81,2.37.46-.3.88-.62,1.25-1,.64-.64,1.1-1.25,1.47-1.85-.48-.78-1.03-1.57-1.77-2.3-.28-.28-.56-.53-.84-.74Zm5.03-5.86c-.81.49-1.63,1.06-2.39,1.82-.24.24-.46.48-.65.72.53.34,1.07.74,1.62,1.29.46.46.85.94,1.19,1.42.18-.22.38-.45.61-.67.74-.74,1.54-1.3,2.33-1.79-.39-.58-.84-1.16-1.39-1.71-.45-.45-.89-.8-1.32-1.09Zm-11.25-5.89c.17-.2.35-.4.55-.6.77-.77,1.61-1.35,2.43-1.85-.26-.33-.54-.66-.86-.98-.71-.71-1.42-1.2-2.12-1.62-.75.46-1.5,1-2.2,1.7-.3.3-.56.6-.79.9.78.45,1.56.97,2.36,1.76.22.22.43.45.62.68Zm-4.84,6.47c.4-.27.78-.57,1.12-.9.69-.7,1.17-1.36,1.56-2-.35-.5-.75-1-1.23-1.47-.51-.51-1.02-.91-1.53-1.25-.39.64-.86,1.29-1.55,1.98-.33.33-.7.62-1.09.88.46.32.92.69,1.39,1.15.52.52.94,1.06,1.32,1.61Zm-6.14,4.73c.31-.45.67-.89,1.12-1.35.54-.54,1.11-.98,1.69-1.37-.23-.29-.48-.58-.76-.85-.76-.76-1.51-1.26-2.26-1.7-.48.34-.96.73-1.41,1.18-.54.54-.95,1.08-1.31,1.62.73.43,1.46.93,2.2,1.67.26.26.5.53.72.8Zm4.88.56c-.33.26-.67.55-.98.87-.72.72-1.22,1.44-1.64,2.15.39.65.8,1.25,1.31,1.76.47.47.93.84,1.37,1.15.44-.76.95-1.52,1.72-2.29.25-.25.5-.48.76-.69-.35-.26-.71-.57-1.08-.94-.57-.57-1.02-1.26-1.46-2.01Zm6.15-4.58c-.28.38-.6.76-1,1.16-.55.55-1.21.98-1.92,1.41.3.46.62.88,1,1.26.64.64,1.25,1.1,1.85,1.47.68-.4,1.31-.83,1.84-1.36.45-.45.81-.88,1.11-1.31-.65-.4-1.32-.87-2.02-1.58-.32-.32-.6-.67-.86-1.05Zm4.97-6.38c-.58.39-1.15.83-1.69,1.37-.44.44-.79.88-1.09,1.31.43.73.87,1.41,1.44,1.97.41.41.8.74,1.19,1.02.33-.5.71-1.01,1.23-1.53.48-.48.97-.88,1.48-1.23-.38-.28-.76-.61-1.16-1-.55-.55-.98-1.2-1.4-1.91Zm14.39-13.76c-1.6,1.62-3.7,2.61-5.65,4.73-1.97,2.14-2.72,4.56-4.27,6.12-.35.35-.76.66-1.19.95.27.4.56.78.9,1.11.7.7,1.36,1.18,2.01,1.57.38-.26.74-.54,1.05-.86,1.56-1.56,2.31-3.97,4.27-6.12,1.95-2.11,4.06-3.11,5.65-4.73l2.77,2.77c-1.6,1.62-3.71,2.61-5.65,4.73-1.97,2.14-2.72,4.56-4.27,6.12l-.26.25c.2.16.39.34.59.54.79.79,1.37,1.64,1.87,2.48.2-.16.39-.32.56-.5,1.56-1.56,2.3-3.97,4.27-6.12,1.94-2.11,4.06-3.11,5.65-4.73l2.77,2.77c-1.59,1.62-3.71,2.61-5.65,4.73-1.97,2.14-2.72,4.56-4.27,6.12-.38.38-.81.71-1.28,1.01.12.14.24.27.36.4,1.56,1.56,3.97,2.31,6.11,4.27,2.12,1.94,3.11,4.05,4.73,5.65l-2.77,2.77c-1.62-1.59-2.61-3.71-4.73-5.65-2.14-1.97-4.56-2.72-6.12-4.27-.34-.34-.65-.73-.93-1.16-.52.36-1.04.78-1.53,1.27-.5.5-.88,1-1.2,1.48.28.42.58.81.92,1.15,1.56,1.56,3.97,2.3,6.12,4.27,2.11,1.94,3.11,4.05,4.73,5.65l-2.77,2.77c-1.62-1.59-2.61-3.71-4.73-5.65-2.14-1.97-4.56-2.72-6.12-4.27l-.29-.31c-.26.35-.57.71-.94,1.07-.58.58-1.27,1.03-2.03,1.47.15.19.31.37.48.54,1.56,1.56,3.97,2.31,6.12,4.27,2.11,1.95,3.11,4.05,4.72,5.65l-2.77,2.77c-1.62-1.59-2.61-3.71-4.73-5.65-2.14-1.97-4.55-2.72-6.12-4.27-.36-.37-.68-.78-.98-1.24-.28.23-.56.48-.83.75-.78.78-1.29,1.54-1.74,2.31.24.34.5.66.78.94,1.56,1.56,3.97,2.31,6.12,4.27,2.12,1.94,3.11,4.06,4.73,5.65l-2.77,2.77c-1.62-1.59-2.61-3.71-4.73-5.65-2.14-1.97-4.56-2.72-6.12-4.27l-.24-.26-.36.38c-1.76,1.76-4.05,2.25-6.13,4.29-2,1.95-3.3,4.22-4.58,5.5l-2.77-2.77c1.28-1.28,2.58-3.55,4.58-5.51,2.09-2.04,4.08-2.24,6.13-4.29.36-.36.67-.72.94-1.08-.5-.82-1.07-1.66-1.84-2.43-.24-.24-.48-.45-.71-.64-.32.46-.69.92-1.15,1.38-1.76,1.76-4.05,2.25-6.13,4.29-2,1.95-3.3,4.22-4.58,5.5l-2.77-2.77c1.28-1.28,2.58-3.55,4.58-5.5,2.09-2.04,4.08-2.24,6.13-4.29.21-.21.4-.42.57-.62-.68-.4-1.37-.89-2.1-1.62-.3-.3-.56-.63-.81-.98-.13.15-.28.3-.43.46-1.76,1.76-4.04,2.25-6.13,4.29-2,1.95-3.3,4.22-4.58,5.5l-2.77-2.77c1.28-1.28,2.58-3.55,4.58-5.5,2.09-2.04,4.08-2.24,6.13-4.29.41-.41.75-.82,1.04-1.23-.38-.55-.8-1.09-1.32-1.61-.47-.47-.94-.84-1.4-1.16-.3.42-.64.83-1.06,1.25-1.76,1.76-4.05,2.25-6.13,4.29-2,1.95-3.3,4.22-4.58,5.5l-2.77-2.77c1.28-1.28,2.58-3.55,4.58-5.51,2.09-2.04,4.08-2.24,6.13-4.29.17-.17.33-.33.47-.5-.46-.32-.92-.69-1.39-1.16-1.76-1.76-2.25-4.05-4.29-6.13-1.95-2-4.22-3.3-5.5-4.58l2.77-2.77c1.28,1.28,3.55,2.58,5.51,4.58,2.04,2.09,2.24,4.09,4.29,6.13.24.24.48.45.71.65.46-.79.97-1.58,1.77-2.38.23-.23.47-.44.71-.64l-.42-.4c-1.76-1.76-2.25-4.05-4.29-6.13-1.95-2-4.22-3.3-5.51-4.58l2.77-2.77c1.28,1.28,3.55,2.58,5.5,4.58,2.04,2.09,2.24,4.09,4.29,6.14.37.37.74.69,1.11.96.73-.43,1.4-.87,1.97-1.44.4-.41.73-.8,1.02-1.18-.44-.31-.88-.67-1.32-1.11-1.76-1.76-2.25-4.04-4.29-6.13-1.95-2-4.23-3.3-5.51-4.58l2.77-2.77c1.28,1.28,3.55,2.58,5.5,4.58,2.04,2.09,2.24,4.08,4.29,6.14.18.18.36.34.53.5.34-.52.73-1.06,1.28-1.6.46-.46.93-.84,1.42-1.19-.16-.14-.32-.29-.49-.46-1.76-1.76-2.25-4.05-4.29-6.13-1.96-2-4.22-3.3-5.5-4.58l2.77-2.77c1.28,1.28,3.55,2.58,5.5,4.58,2.04,2.09,2.24,4.09,4.29,6.14.43.42.85.77,1.27,1.07.43-.29.83-.59,1.18-.95,1.56-1.56,2.31-3.97,4.27-6.12,1.94-2.12,4.06-3.11,5.65-4.73l2.77,2.77c-1.6,1.62-3.71,2.61-5.65,4.73-1.97,2.14-2.72,4.56-4.27,6.12-.12.12-.24.23-.37.34.43.3.87.66,1.3,1.09.55.54.99,1.12,1.38,1.7.15-.13.3-.25.43-.39,1.55-1.56,2.3-3.97,4.27-6.12,1.94-2.12,4.05-3.11,5.65-4.73l2.77,2.77Z"></path>
  <g>
    <path class="cls-1" d="m90.36,27.4c-.36.04-.76.04-1.19.04h-3.58v10.55h-3.9V12.69h7.48c5.6,0,9.04,2.24,9.04,7.19,0,3.47-1.52,5.67-4.16,6.76l5.46,10.16v1.19h-3.58l-5.57-10.59Zm-4.77-2.85h3.47c3.43,0,5.17-1.23,5.17-4.45s-1.84-4.41-5.17-4.41h-3.47v8.85Z"></path>
    <path class="cls-1" d="m105.35,29.24c.18,4.48,2.2,6.18,5.74,6.18,2.42,0,4.09-.8,5.24-1.73h1.19v2.57c-1.37.94-3.43,1.95-6.97,1.95-5.78,0-9-3.69-9-9.61s3.72-9.79,8.64-9.79,7.91,2.93,7.91,9.14c0,.51-.04,1.16-.04,1.3h-12.72Zm.07-2.42h9.04c-.07-4.08-1.66-5.49-4.26-5.49-2.46,0-4.37,1.48-4.77,5.49Z"></path>
    <path class="cls-1" d="m137.41,37.34c0,4.45-3.43,6.72-8.71,6.72-3.25,0-5.68-.69-7.26-1.59v-2.78h1.19c1.23.94,3.18,1.63,5.57,1.63,3.43,0,5.53-1.19,5.53-4.23v-2.02c-1.34,1.41-3.32,2.46-5.82,2.46-3.83,0-7.37-2.53-7.37-8.96,0-7.08,3.98-9.76,7.95-9.76,2.49,0,4.23.83,5.49,2.06.22-1.01.72-1.77,1.74-1.77h1.7v18.25Zm-3.69-4.88v-9.04c-1.16-1.08-2.42-1.66-4.34-1.66-2.49,0-5.13,1.3-5.13,6.51s1.92,6.54,4.63,6.54c1.95,0,3.58-1.05,4.84-2.35Z"></path>
    <path class="cls-1" d="m141.85,14.89c0-1.19,1.01-2.17,2.17-2.17s2.17.98,2.17,2.17-1.02,2.1-2.17,2.1-2.17-.94-2.17-2.1Zm.29,23.09v-18.9h2.06c1.45,0,1.63.43,1.63,2.82v16.08h-3.69Z"></path>
    <path class="cls-1" d="m149.44,28.59c0-6.04,3.9-9.79,9.04-9.79s9.04,3.76,9.04,9.79-3.91,9.61-9.04,9.61-9.04-3.61-9.04-9.61Zm14.31,0c0-4.55-2.06-7.01-5.28-7.01s-5.28,2.46-5.28,7.01,2.1,6.83,5.28,6.83,5.28-2.28,5.28-6.83Z"></path>
    <path class="cls-1" d="m174.7,21.47c1.85-1.45,4.45-2.68,7.23-2.68,2.64,0,4.84,1.08,4.84,5.2v13.99h-3.69v-13.12c0-2.35-1.05-3-2.85-3-2.06,0-3.98.98-5.53,1.88v14.24h-3.68v-18.9h2.31c.9,0,1.3.4,1.37,2.39Z"></path>
    <path class="cls-1" d="m201.66,35.89c-1.41,1.52-3.11,2.31-5.64,2.31-3.43,0-5.93-1.95-5.93-5.64,0-3.87,3.07-5.75,7.34-5.75,1.63,0,2.82.18,4.12.51v-2.49c0-2.24-1.3-3.22-3.79-3.22-2.24,0-3.98.69-5.17,1.55h-1.16v-2.75c1.66-.83,3.76-1.63,6.79-1.63,4.48,0,7.05,1.63,7.05,5.78v13.41h-1.45c-1.45,0-1.95-.4-2.17-2.1Zm-.11-2.38v-4.01c-1.05-.22-2.2-.36-3.5-.36-2.53,0-4.34.94-4.34,3.22s1.48,3.33,3.51,3.33,3.25-.94,4.34-2.17Z"></path>
    <path class="cls-1" d="m209.86,37.99V12.69h2.06c1.45,0,1.66.36,1.66,2.46v22.84h-3.72Z"></path>
    <path class="cls-1" d="m224.67,36.8l8.35-24.11h4.19l8.31,24.11v1.19h-3.72l-2.35-7.08h-9.29l-2.28,7.08h-3.22v-1.19Zm6.43-8.78h7.37l-3.65-11.17h-.08l-3.65,11.17Z"></path>
    <path class="cls-1" d="m252.61,24.18v13.81h-3.69v-18.9h2.32c.9,0,1.3.4,1.37,2.6,1.27-1.45,3.07-2.78,5.42-2.78.43,0,.8.07,1.01.14v3.04s-.69-.04-.83-.04c-2.57,0-4.41,1.08-5.6,2.13Z"></path>
    <path class="cls-1" d="m260.99,19.09h2.28v-5.13h3.69v5.13h4.19v2.6h-4.19v11.2c0,1.99.83,2.57,2.71,2.57h1.7v2.38c-.69.18-1.74.36-3,.36-3.21,0-5.09-1.34-5.09-4.88v-11.64h-2.28v-2.6Z"></path>
    <path class="cls-1" d="m273.85,36.51v-2.86h1.19c.87.83,2.46,1.7,4.81,1.7,2.64,0,3.94-.94,3.94-2.75,0-1.59-.9-2.28-3.98-2.75-3.83-.54-5.96-1.95-5.96-5.46s2.64-5.53,6.79-5.53c2.67,0,4.3.62,5.57,1.34v2.82h-1.19c-.9-.72-2.28-1.34-4.34-1.34-2.42,0-3.54.83-3.54,2.42,0,1.48,1.05,2.13,4.01,2.57,4.16.61,6.11,1.99,6.11,5.6s-2.28,5.89-7.23,5.89c-3.11,0-4.91-.83-6.18-1.66Z"></path>
    <path class="cls-1" d="m311.83,35.39c-1.73,1.73-4.08,2.82-7.01,2.82-5.56,0-8.5-3.04-8.5-7.37,0-3.69,2.46-6.04,5.35-7.3-.91-1.26-1.56-2.71-1.56-4.73,0-3.72,2.75-6.32,7.27-6.32,2.5,0,4.05.61,5.24,1.55v2.89h-1.45c-.83-.79-1.95-1.45-3.76-1.45-2.13,0-3.58,1.3-3.58,3.36,0,1.52.72,2.64,2.24,4.41l5.89,6.8c.87-1.95,1.63-4.37,1.81-6.8h3.18v.94c-.47,3-1.55,5.96-2.89,8.28l3.76,4.34v1.19h-3.73l-2.28-2.6Zm-1.88-2.1l-6.68-7.77c-1.74,1.01-3.04,2.38-3.04,4.99s1.56,4.77,5.21,4.77c1.95,0,3.36-.76,4.52-1.99Z"></path>
    <path class="cls-1" d="m80.42,60.61c0-8.17,4.99-12.87,11.56-12.87,3.61,0,5.42.79,7.3,2.02v3.07h-1.52c-1.19-1.16-2.85-2.09-5.68-2.09-4.59,0-7.66,3.36-7.66,9.72,0,6.69,2.71,10.05,7.37,10.05,3.22,0,5.06-1.27,6.51-2.75h1.27v3c-1.74,1.52-4.27,2.71-7.92,2.71-6.72,0-11.24-4.66-11.24-12.87Z"></path>
    <path class="cls-1" d="m115.22,68.82v-14.46h3.69v18.9h-2.31c-.87,0-1.23-.29-1.34-2.13-1.88,1.34-4.34,2.39-6.83,2.39-2.97,0-5.17-1.23-5.17-5.06v-14.1h3.69v13.27c0,2.42,1.19,3,2.93,3,1.91,0,3.83-.9,5.35-1.81Z"></path>
    <path class="cls-1" d="m123.96,73.27v-25.3h2.06c1.45,0,1.66.36,1.66,2.46v22.84h-3.72Z"></path>
    <path class="cls-1" d="m130.86,54.36h2.28v-5.13h3.69v5.13h4.19v2.6h-4.19v11.2c0,1.99.83,2.57,2.71,2.57h1.7v2.39c-.69.18-1.74.36-3,.36-3.22,0-5.1-1.34-5.1-4.88v-11.64h-2.28v-2.6Z"></path>
    <path class="cls-1" d="m156.52,68.82v-14.46h3.69v18.9h-2.32c-.87,0-1.23-.29-1.34-2.13-1.88,1.34-4.34,2.39-6.83,2.39-2.96,0-5.17-1.23-5.17-5.06v-14.1h3.69v13.27c0,2.42,1.19,3,2.93,3,1.91,0,3.83-.9,5.35-1.81Z"></path>
    <path class="cls-1" d="m168.73,59.46v13.81h-3.69v-18.9h2.31c.91,0,1.3.4,1.37,2.6,1.27-1.45,3.07-2.78,5.42-2.78.44,0,.79.07,1.02.14v3.04s-.69-.04-.83-.04c-2.57,0-4.41,1.08-5.6,2.13Z"></path>
    <path class="cls-1" d="m180.48,64.52c.18,4.48,2.21,6.18,5.75,6.18,2.42,0,4.08-.79,5.24-1.73h1.19v2.57c-1.37.94-3.44,1.95-6.98,1.95-5.78,0-9-3.69-9-9.61s3.73-9.8,8.64-9.8,7.91,2.93,7.91,9.15c0,.5-.04,1.16-.04,1.3h-12.72Zm.07-2.42h9.04c-.07-4.08-1.66-5.49-4.27-5.49-2.46,0-4.37,1.48-4.77,5.49Z"></path>
    <path class="cls-1" d="m203.82,60.61c0-8.17,4.99-12.87,11.57-12.87,3.61,0,5.42.79,7.3,2.02v3.07h-1.52c-1.19-1.16-2.86-2.09-5.67-2.09-4.59,0-7.66,3.36-7.66,9.72,0,6.69,2.71,10.05,7.37,10.05,3.22,0,5.06-1.27,6.5-2.75h1.27v3c-1.74,1.52-4.27,2.71-7.91,2.71-6.72,0-11.24-4.66-11.24-12.87Z"></path>
    <path class="cls-1" d="m225.47,63.87c0-6.04,3.91-9.8,9.04-9.8s9.04,3.76,9.04,9.8-3.91,9.61-9.04,9.61-9.04-3.61-9.04-9.61Zm14.31,0c0-4.55-2.06-7.01-5.27-7.01s-5.28,2.46-5.28,7.01,2.1,6.83,5.28,6.83,5.27-2.28,5.27-6.83Z"></path>
    <path class="cls-1" d="m258.79,68.82v-14.46h3.68v18.9h-2.31c-.87,0-1.23-.29-1.34-2.13-1.88,1.34-4.34,2.39-6.83,2.39-2.96,0-5.17-1.23-5.17-5.06v-14.1h3.69v13.27c0,2.42,1.19,3,2.93,3,1.91,0,3.83-.9,5.35-1.81Z"></path>
    <path class="cls-1" d="m271.18,56.75c1.84-1.45,4.44-2.68,7.23-2.68,2.64,0,4.84,1.09,4.84,5.21v13.99h-3.69v-13.12c0-2.35-1.05-3-2.86-3-2.06,0-3.97.98-5.53,1.88v14.24h-3.69v-18.9h2.31c.91,0,1.3.4,1.38,2.39Z"></path>
    <path class="cls-1" d="m286.75,63.83c0-6.07,3.97-9.76,9.33-9.76,2.93,0,4.59.83,5.67,1.52v2.89h-1.52c-.79-.79-2.13-1.55-4.19-1.55-3.25,0-5.53,2.46-5.53,6.9s2.13,6.83,5.46,6.83c2.46,0,3.79-.94,4.59-1.81h1.37v2.68c-1.08.87-3.07,1.95-6.04,1.95-5.75,0-9.14-3.65-9.14-9.65Z"></path>
    <path class="cls-1" d="m305.37,50.17c0-1.19,1.01-2.17,2.17-2.17s2.17.98,2.17,2.17-1.01,2.1-2.17,2.1-2.17-.94-2.17-2.1Zm.29,23.1v-18.9h2.06c1.45,0,1.63.44,1.63,2.82v16.08h-3.69Z"></path>
    <path class="cls-1" d="m314.33,73.27v-25.3h2.06c1.45,0,1.67.36,1.67,2.46v22.84h-3.72Z"></path>
  </g>
</svg>
